<svg xmlns="http://www.w3.org/2000/svg" viewBox="0 0 512 512">
  <!-- Background: deep navy rounded square -->
  <rect width="512" height="512" rx="96" fill="#1A365D"/>
  <!-- Mint accent bar at bottom -->
  <rect x="96" y="400" width="320" height="24" rx="12" fill="#9AE6B4" opacity="0.85"/>
  <!-- Bus icon (MUI DirectionsBus, scaled to fill 384x384 centred) -->
  <g transform="translate(64,64) scale(16)" fill="white">
    <path d="M4 16c0 .88.39 1.67 1 2.22V20c0 .55.45 1 1 1h1c.55 0 1-.45 1-1v-1h8v1c0 .55.45 1 1 1h1c.55 0 1-.45 1-1v-1.78c.61-.55 1-1.34 1-2.22V6c0-3.5-3.58-4-8-4s-8 .5-8 4v10zm3.5 1c-.83 0-1.5-.67-1.5-1.5S6.67 14 7.5 14s1.5.67 1.5 1.5S8.33 17 7.5 17zm9 0c-.83 0-1.5-.67-1.5-1.5S15.67 14 16.5 14s1.5.67 1.5 1.5S17.33 17 16.5 17zM12 6H4V8.5h8V6zm8 0h-8V8.5h8V6zm-8 3.5H4V12h8V9.5zm8 0h-8V12h8V9.5z"/>
  </g>
</svg>
